IKResults
version=1
nRows=8
nColumns=40
inDegrees=yes

Units are S.I. units (second, meters, Newtons, ...)
Angles are in degrees.

endheader
time	pelvis_tilt	pelvis_list	pelvis_rotation	pelvis_tx	pelvis_ty	pelvis_tz	hip_flexion_r	hip_adduction_r	hip_rotation_r	knee_angle_r	knee_angle_r_beta	ankle_angle_r	subtalar_angle_r	mtp_angle_r	hip_flexion_l	hip_adduction_l	hip_rotation_l	knee_angle_l	knee_angle_l_beta	ankle_angle_l	subtalar_angle_l	mtp_angle_l	lumbar_extension	lumbar_bending	lumbar_rotation	arm_flex_r	arm_add_r	arm_rot_r	elbow_flex_r	pro_sup_r	wrist_flex_r	wrist_dev_r	arm_flex_l	arm_add_l	arm_rot_l	elbow_flex_l	pro_sup_l	wrist_flex_l	wrist_dev_l
      1.79000000	     17.46781980	      0.05301630	     -4.91222887	     -0.01801704	      0.95562041	      1.41832888	    -14.83317546	     -2.43165466	      3.28077803	    -51.81454812	     -0.90433447	     -5.16850505	    -11.97053803	      0.16209374	    -10.90521663	     -1.54419688	     22.41363462	    -12.87430516	     -0.22469901	      3.77825482	     -5.28104189	     -8.42199112	    -24.59509176	     -2.39250351	      0.65314385	      0.25573912	    -10.67086737	      3.53409125	     24.72201754	     89.95437384	      0.00000000	      0.00000000	      4.26390618	     10.27009762	      1.01724320	     21.60066121	     89.95437384	      0.00000000	      0.00000000
      1.80000000	     17.44504822	     -0.10479945	     -4.77809772	     -0.01239609	      0.95617276	      1.41715735	    -14.05516597	     -2.16947337	      3.28423851	    -52.12006449	     -0.90966673	     -4.22320728	    -11.92038579	      0.14031402	    -11.39180554	     -1.47105078	     22.51463384	    -12.66860442	     -0.22110886	      3.92426636	     -5.30609989	     -8.36282548	    -24.55433833	     -2.19836486	      0.45080785	      0.33853910	    -10.57201375	      3.42771849	     24.64008709	     89.95437384	      0.00000000	      0.00000000	      4.79139485	     10.43900760	      0.95513643	     21.83387637	     89.95437384	      0.00000000	      0.00000000
      1.81000000	     17.42744270	     -0.25183600	     -4.82955984	     -0.00671071	      0.95676622	      1.41634604	    -13.32924393	     -1.89489807	      3.57071120	    -52.31876949	     -0.91313479	     -1.60606404	    -11.05200091	      5.64243389	    -12.06062930	     -1.54682176	     22.28568329	    -12.06280161	     -0.21053561	      3.91948973	     -5.25325136	     -9.03391797	    -24.49953086	     -2.10466840	      0.56260222	      0.31873783	    -10.41735099	      2.86837770	     24.53837555	     89.95437384	      0.00000000	      0.00000000	      5.37099039	     10.57324853	      0.79321399	     22.06966171	     89.95437384	      0.00000000	      0.00000000
      1.82000000	     17.37413150	     -0.45791293	     -4.72735126	     -0.00115246	      0.95729327	      1.41533002	    -12.61403039	     -1.56379304	      3.57029558	    -52.18009240	     -0.91071442	     -0.35453145	    -11.46594012	      5.52678308	    -12.50415653	     -1.43502877	     22.22299877	    -11.87474114	     -0.20725333	      4.11748395	     -5.36809286	     -8.99678805	    -24.41881066	     -1.87223384	      0.43769704	      0.42133346	    -10.34588554	      2.90785133	     24.36749315	     89.95437384	      0.00000000	      0.00000000	      5.92242328	     10.68624107	      0.83408831	     22.25125629	     89.95437384	      0.00000000	      0.00000000
      1.83000000	     17.30426327	     -0.68836854	     -4.56436569	      0.00431470	      0.95777905	      1.41412311	    -11.91188866	     -1.24277249	      3.41368338	    -51.85746498	     -0.90508351	      0.90217086	    -12.00224558	      5.45228041	    -12.90337082	     -1.28829401	     22.08817530	    -11.69444281	     -0.20410653	      4.27374524	     -5.43701305	     -8.92842037	    -24.35444776	     -1.57153924	      0.29905064	      0.46183751	    -10.33677855	      2.95263841	     24.34684618	     89.95437384	      0.00000000	      0.00000000	      6.48438050	     10.75490232	      0.88720463	     22.45593318	     89.95437384	      0.00000000	      0.00000000
      1.84000000	     17.19471295	     -0.84541411	     -4.43949723	      0.00985874	      0.95815337	      1.41295067	    -11.11730575	     -1.10530846	      3.03260728	    -51.47820102	     -0.89846410	      1.81165444	    -12.41419104	      5.38413336	    -13.21781289	     -1.20722348	     22.14766663	    -11.57303293	     -0.20198753	      4.44707472	     -5.41330401	     -8.84249502	    -24.20563118	     -1.35178123	      0.16366829	      0.48895872	    -10.31960363	      3.01896835	     24.31847771	     89.95437384	      0.00000000	      0.00000000	      7.01130223	     10.83510314	      0.87687638	     22.65663776	     89.95437384	      0.00000000	      0.00000000
      1.85000000	     17.27325841	     -1.20499710	     -4.08637665	      0.01515613	      0.95886959	      1.41179307	    -10.76100538	     -0.50198954	      2.87922246	    -50.62082098	     -0.88350000	      2.58291940	    -13.75105190	      5.96039878	    -13.72172901	     -0.87458816	     21.56438197	    -11.46526701	     -0.20010666	      4.61590095	     -5.39918550	     -8.66135629	    -24.33629120	     -0.87895714	     -0.10065948	      0.52753656	    -10.35540437	      3.24266601	     24.40667460	     89.95437384	      0.00000000	      0.00000000	      7.58221863	     10.90272025	      0.96702725	     22.92134369	     89.95437384	      0.00000000	      0.00000000
      1.86000000	     17.14602364	     -1.30099663	     -3.93675839	      0.02042819	      0.95910857	      1.41060948	     -9.96779332	     -0.42063131	      2.49099929	    -50.00889830	     -0.87281993	      3.93622986	    -14.59142819	      6.04985764	    -13.93619056	     -0.85068947	     21.37421106	    -11.43282850	     -0.19954050	      4.74303314	     -5.40990773	     -8.56465273	    -24.21327410	     -0.71149975	     -0.27254994	      0.53381417	    -10.35701987	      3.32994388	     24.48639110	     89.95437384	      0.00000000	      0.00000000	      8.12901149	     10.96677913	      1.00362216	     23.17844051	     89.95437384	      0.00000000	      0.00000000
